<svg aria-hidden="true" style="position: absolute; width: 0; height: 0; overflow: hidden;" version="1.1" xmlns="http://www.w3.org/2000/svg" xmlns:xlink="http://www.w3.org/1999/xlink">
<defs>
<symbol id="icon-logo-white" viewBox="0 0 224 32">
<path  d="M20.238 16.649l-1.065 1.84c0.256 0.449 2.973 5.061 3.229 5.511h6.39c-0.009-0.017-8.375-14.388-8.554-14.693-2.718 4.689-4.49 7.766-7.446 12.853h-2.13s8.128-14.041 8.512-14.693h-2.13s-8.87 15.312-9.577 16.533h6.389s0.733-1.263 2.011-3.476c0.784 1.331 1.875 3.18 2.045 3.485h2.13c-0.852-1.458-2.241-3.824-3.118-5.316 0.928-1.611 2.045-3.535 3.306-5.706 0.443 0.763 4.907 8.411 5.359 9.191h-2.13c-0.247-0.458-2.956-5.079-3.22-5.528z"></path>
<path  d="M43.074 18.658h-4.077l-0.645 1.462h-1.551l3.995-8.921h0.494l3.995 8.921h-1.565l-0.645-1.462zM41.042 13.819l-1.523 3.629h3.034l-1.51-3.629zM53.275 11.346l-3.996 8.921h-0.494l-3.995-8.921h1.634l2.608 6.102 2.609-6.101h1.634zM59.054 18.658h-4.077l-0.645 1.462h-1.551l3.995-8.921h0.494l3.995 8.921h-1.565l-0.645-1.462zM57.022 13.819l-1.524 3.629h3.034l-1.51-3.629zM62.707 11.346h1.455v8.774h-1.455v-8.774zM70.203 20.121h-1.798l-4.201-4.667 3.803-4.108h1.785l-3.762 4.108 4.173 4.666zM71.65 11.346h5.958v1.263h-4.503v2.247h3.391v1.223h-3.391v2.779h4.668v1.263h-6.123v-8.774zM86.933 11.346v8.921h-0.494l-5.518-6.089v5.942h-1.455v-8.921h0.508l5.505 6.062v-5.916h1.455z"></path>
</symbol>
<symbol id="icon-plus" viewBox="0 0 24 24">
<path d="M5 13h6v6c0 0.552 0.448 1 1 1s1-0.448 1-1v-6h6c0.552 0 1-0.448 1-1s-0.448-1-1-1h-6v-6c0-0.552-0.448-1-1-1s-1 0.448-1 1v6h-6c-0.552 0-1 0.448-1 1s0.448 1 1 1z"></path>
</symbol>
<symbol id="icon-header-close" viewBox="0 0 32 32">
<path d="M0.669 0.669c0.893-0.893 2.34-0.893 3.232 0l12.098 12.098 12.098-12.098c0.893-0.893 2.34-0.893 3.233 0s0.893 2.34 0 3.232l-12.098 12.098 12.098 12.098c0.893 0.893 0.893 2.34 0 3.233s-2.34 0.893-3.233 0l-12.098-12.098-12.098 12.098c-0.893 0.893-2.34 0.893-3.232 0s-0.893-2.34 0-3.233l12.098-12.098-12.098-12.098c-0.893-0.893-0.893-2.34 0-3.232z"></path>
</symbol>
<symbol id="icon-header-burger" viewBox="0 0 40 32">
<path  d="M0 0h40.421v5.053h-40.421v-5.053z"></path>
<path  d="M10.105 13.474h30.316v5.053h-30.316v-5.053z"></path>
<path  d="M0 26.947h40.421v5.053h-40.421v-5.053z"></path>
</symbol>
<symbol id="icon-arrow-left" viewBox="0 0 36 32">
<path d="M17.127 0.67c-0.397-0.413-0.954-0.669-1.572-0.669s-1.174 0.256-1.571 0.669l-0.001 0.001-13.333 13.712c-0.403 0.417-0.651 0.985-0.651 1.611 0 0.002 0 0.005 0 0.007v-0c0 0.606 0.235 1.188 0.651 1.618l13.333 13.712c0.868 0.892 2.276 0.892 3.143 0 0.403-0.419 0.651-0.988 0.651-1.616s-0.248-1.197-0.651-1.617l0.001 0.001-9.54-9.813h25.746c1.227 0.002 2.222-1.022 2.222-2.284s-0.996-2.286-2.222-2.286h-25.746l9.54-9.813c0.402-0.418 0.65-0.988 0.65-1.615s-0.248-1.197-0.65-1.616l0.001 0.001z"></path>
</symbol>
<symbol id="icon-arrow-right" viewBox="0 0 36 32">
<path d="M18.428 0.67c0.397-0.413 0.954-0.669 1.572-0.669s1.174 0.256 1.571 0.669l0.001 0.001 13.333 13.714c0.416 0.428 0.651 1.010 0.651 1.616s-0.235 1.188-0.651 1.618l-13.333 13.712c-0.397 0.413-0.954 0.669-1.572 0.669s-1.174-0.256-1.571-0.669l-0.001-0.001c-0.403-0.419-0.651-0.988-0.651-1.616s0.248-1.197 0.651-1.617l-0.001 0.001 9.54-9.813h-25.746c-1.227 0.002-2.222-1.022-2.222-2.284s0.996-2.286 2.222-2.286h25.746l-9.54-9.813c-0.402-0.418-0.65-0.988-0.65-1.615s0.248-1.197 0.65-1.616l-0.001 0.001z"></path>
</symbol>
<symbol id="icon-logo-letter" viewBox="0 0 41 32">
<path fill="#fff" style="fill: var(--color1, #fff)" d="M24.52 17.773l-2.045 3.56c0.491 0.87 5.709 9.797 6.2 10.667h12.269c-0.017-0.033-16.080-27.848-16.424-28.439-5.218 9.075-8.621 15.032-14.297 24.878h-4.090s15.606-27.176 16.342-28.439h-4.090l-18.387 32h12.269s1.406-2.445 3.86-6.728c1.505 2.577 3.599 6.154 3.926 6.745h4.090c-14.781-26.879-16.764-30.24-18.752-33.599l12.766 23.309c12.384-22.787 14.488-26.396 16.598-30.002l-10.251 18.957c0.851 1.477 9.422 16.279 10.289 17.789h-4.090c-0.474-0.886-5.676-9.83-6.182-10.7z"></path>
</symbol>
<symbol id="icon-logo-word" viewBox="0 0 177 32">
<path fill="#fff" style="fill: var(--color1, #fff)" d="M22.12 26.322h-14.376l-2.274 5.161h-5.47l14.085-31.483h1.743l14.086 31.483h-5.519l-2.275-5.161zM14.958 9.243l-5.374 12.809h10.697l-5.324-12.809zM58.085 0.517l-14.085 31.483h-1.745l-14.083-31.483h5.76l9.196 21.536 9.196-21.534h5.76zM78.464 26.322h-14.376l-2.275 5.161h-5.47l14.088-31.483h1.743l14.085 31.483h-5.516l-2.277-5.161zM71.302 9.243l-5.374 12.809h10.697l-5.324-12.809zM91.345 0.517h5.131v30.965h-5.131v-30.964zM117.772 31.482h-6.339l-14.811-16.469 13.405-14.494h6.293l-13.263 14.498 14.714 16.469zM122.872 0.517h21.007v4.457h-15.877v7.93h11.956v4.315h-11.956v9.806h16.457v4.457h-21.588v-30.964zM176.762 0.517v31.483h-1.743l-19.458-21.49v20.974h-5.131v-31.483h1.79l19.41 21.396v-20.878h5.131z"></path>
</symbol>
<symbol id="icon-logo" viewBox="0 0 420 60"><path d="M37.9457 31.2169L35.9489 34.6667C36.4281 35.5092 41.524 44.1574 42.0032 45C43.4409 45 52.5783 45 53.984 45C53.9681 44.9682 38.2811 18.0221 37.9457 17.4497C32.8498 26.241 29.5272 32.0118 23.984 41.5503H19.9904C19.9904 41.5503 35.23 15.2241 35.9489 14H31.9553C31.9553 14 15.3259 42.7108 14 45C15.4377 45 24.5751 45 25.9808 45C25.9808 45 27.3546 42.6313 29.7508 38.482C31.2204 40.9779 33.2652 44.4436 33.5847 45.0159C34.1118 45.0159 35.7093 45.0159 37.5783 45.0159C35.9808 42.2815 33.377 37.8462 31.7316 35.0482C33.4728 32.0277 35.5655 28.419 37.9297 24.3492C38.7604 25.78 47.131 40.1195 47.9776 41.5821H43.984C43.5208 40.7236 38.4409 32.0595 37.9457 31.2169Z" fill="white"/>
</g>
<path d="M80.7633 34.9839H73.1184L71.9086 37.7258H69L76.4904 21H77.417L84.9074 37.7258H81.9731L80.7633 34.9839ZM76.9537 25.9106L74.0966 32.7155H79.7851L76.9537 25.9106Z" fill="white"/>
<path d="M99.8891 21.2742L92.3986 38H91.472L83.9816 21.2742H87.0447L91.9353 32.7155L96.826 21.2742H99.8891Z" fill="white"/>
<path d="M110.726 34.9839H103.082L101.872 37.7258H98.9632L106.454 21H107.38L114.871 37.7258H111.936L110.726 34.9839ZM106.917 25.9106L104.06 32.7155H109.748L106.917 25.9106Z" fill="white"/>
<path d="M117.576 21.2742H120.305V37.7258H117.576V21.2742ZM131.63 37.7258H128.258L120.382 28.9765L127.512 21.2742H130.858L123.805 28.9765L131.63 37.7258Z" fill="white"/>
<path d="M134.343 21.2742H145.514V23.6422H137.071V27.8548H143.429V30.1481H137.071V35.3578H145.823V37.7258H134.343V21.2742Z" fill="white"/>
<path d="M163 21.2742V38H162.073L151.726 26.5836V37.7258H148.997V21H149.95L160.272 32.3666V21.2742H163Z" fill="white"/>
</symbol>
</defs>
</svg>
