<svg aria-hidden="true" style="position: absolute; width: 0; height: 0; overflow: hidden;" version="1.1" width="1280" height="1024"
        viewBox="0 0 1280 1024"
     baseProfile="full"
     xmlns="http://www.w3.org/2000/svg"
     xmlns:xlink="http://www.w3.org/1999/xlink"
     xmlns:ev="http://www.w3.org/2001/xml-events">
<defs>
<symbol id="icon-logo-white" viewBox="0 0 224 32">
<path  d="M20.238 16.649l-1.065 1.84c0.256 0.449 2.973 5.061 3.229 5.511h6.39c-0.009-0.017-8.375-14.388-8.554-14.693-2.718 4.689-4.49 7.766-7.446 12.853h-2.13s8.128-14.041 8.512-14.693h-2.13s-8.87 15.312-9.577 16.533h6.389s0.733-1.263 2.011-3.476c0.784 1.331 1.875 3.18 2.045 3.485h2.13c-0.852-1.458-2.241-3.824-3.118-5.316 0.928-1.611 2.045-3.535 3.306-5.706 0.443 0.763 4.907 8.411 5.359 9.191h-2.13c-0.247-0.458-2.956-5.079-3.22-5.528z"></path>
<path  d="M43.074 18.658h-4.077l-0.645 1.462h-1.551l3.995-8.921h0.494l3.995 8.921h-1.565l-0.645-1.462zM41.042 13.819l-1.523 3.629h3.034l-1.51-3.629zM53.275 11.346l-3.996 8.921h-0.494l-3.995-8.921h1.634l2.608 6.102 2.609-6.101h1.634zM59.054 18.658h-4.077l-0.645 1.462h-1.551l3.995-8.921h0.494l3.995 8.921h-1.565l-0.645-1.462zM57.022 13.819l-1.524 3.629h3.034l-1.51-3.629zM62.707 11.346h1.455v8.774h-1.455v-8.774zM70.203 20.121h-1.798l-4.201-4.667 3.803-4.108h1.785l-3.762 4.108 4.173 4.666zM71.65 11.346h5.958v1.263h-4.503v2.247h3.391v1.223h-3.391v2.779h4.668v1.263h-6.123v-8.774zM86.933 11.346v8.921h-0.494l-5.518-6.089v5.942h-1.455v-8.921h0.508l5.505 6.062v-5.916h1.455z"></path>
</symbol>
<symbol id="icon-plus" viewBox="0 0 24 24">
<path d="M5 13h6v6c0 0.552 0.448 1 1 1s1-0.448 1-1v-6h6c0.552 0 1-0.448 1-1s-0.448-1-1-1h-6v-6c0-0.552-0.448-1-1-1s-1 0.448-1 1v6h-6c-0.552 0-1 0.448-1 1s0.448 1 1 1z"></path>
</symbol>
<symbol id="icon-header-close" viewBox="0 0 32 32">
<path d="M0.669 0.669c0.893-0.893 2.34-0.893 3.232 0l12.098 12.098 12.098-12.098c0.893-0.893 2.34-0.893 3.233 0s0.893 2.34 0 3.232l-12.098 12.098 12.098 12.098c0.893 0.893 0.893 2.34 0 3.233s-2.34 0.893-3.233 0l-12.098-12.098-12.098 12.098c-0.893 0.893-2.34 0.893-3.232 0s-0.893-2.34 0-3.233l12.098-12.098-12.098-12.098c-0.893-0.893-0.893-2.34 0-3.232z"></path>
</symbol>
<symbol id="icon-header-burger" viewBox="0 0 40 32">
<path  d="M0 0h40.421v5.053h-40.421v-5.053z"></path>
<path  d="M10.105 13.474h30.316v5.053h-30.316v-5.053z"></path>
<path  d="M0 26.947h40.421v5.053h-40.421v-5.053z"></path>
</symbol>
<symbol id="icon-arrow-left" viewBox="0 0 36 32">
<path d="M17.127 0.67c-0.397-0.413-0.954-0.669-1.572-0.669s-1.174 0.256-1.571 0.669l-0.001 0.001-13.333 13.712c-0.403 0.417-0.651 0.985-0.651 1.611 0 0.002 0 0.005 0 0.007v-0c0 0.606 0.235 1.188 0.651 1.618l13.333 13.712c0.868 0.892 2.276 0.892 3.143 0 0.403-0.419 0.651-0.988 0.651-1.616s-0.248-1.197-0.651-1.617l0.001 0.001-9.54-9.813h25.746c1.227 0.002 2.222-1.022 2.222-2.284s-0.996-2.286-2.222-2.286h-25.746l9.54-9.813c0.402-0.418 0.65-0.988 0.65-1.615s-0.248-1.197-0.65-1.616l0.001 0.001z"></path>
</symbol>
<symbol id="icon-arrow-right" viewBox="0 0 36 32">
<path d="M18.428 0.67c0.397-0.413 0.954-0.669 1.572-0.669s1.174 0.256 1.571 0.669l0.001 0.001 13.333 13.714c0.416 0.428 0.651 1.010 0.651 1.616s-0.235 1.188-0.651 1.618l-13.333 13.712c-0.397 0.413-0.954 0.669-1.572 0.669s-1.174-0.256-1.571-0.669l-0.001-0.001c-0.403-0.419-0.651-0.988-0.651-1.616s0.248-1.197 0.651-1.617l-0.001 0.001 9.54-9.813h-25.746c-1.227 0.002-2.222-1.022-2.222-2.284s0.996-2.286 2.222-2.286h25.746l-9.54-9.813c-0.402-0.418-0.65-0.988-0.65-1.615s0.248-1.197 0.65-1.616l-0.001 0.001z"></path>
</symbol>
</defs>
</svg>
