<svg aria-hidden="true" style="position: absolute; width: 0; height: 0; overflow: hidden;" version="1.1" width="1280" height="1024"
        viewBox="0 0 1280 1024"
     baseProfile="full"
     xmlns="http://www.w3.org/2000/svg"
     xmlns:xlink="http://www.w3.org/1999/xlink"
     xmlns:ev="http://www.w3.org/2001/xml-events">
<defs>
<symbol id="icon-logo-white" viewBox="0 0 224 32">
<path  d="M20.238 16.649l-1.065 1.84c0.256 0.449 2.973 5.061 3.229 5.511h6.39c-0.009-0.017-8.375-14.388-8.554-14.693-2.718 4.689-4.49 7.766-7.446 12.853h-2.13s8.128-14.041 8.512-14.693h-2.13s-8.87 15.312-9.577 16.533h6.389s0.733-1.263 2.011-3.476c0.784 1.331 1.875 3.18 2.045 3.485h2.13c-0.852-1.458-2.241-3.824-3.118-5.316 0.928-1.611 2.045-3.535 3.306-5.706 0.443 0.763 4.907 8.411 5.359 9.191h-2.13c-0.247-0.458-2.956-5.079-3.22-5.528z"></path>
<path  d="M43.074 18.658h-4.077l-0.645 1.462h-1.551l3.995-8.921h0.494l3.995 8.921h-1.565l-0.645-1.462zM41.042 13.819l-1.523 3.629h3.034l-1.51-3.629zM53.275 11.346l-3.996 8.921h-0.494l-3.995-8.921h1.634l2.608 6.102 2.609-6.101h1.634zM59.054 18.658h-4.077l-0.645 1.462h-1.551l3.995-8.921h0.494l3.995 8.921h-1.565l-0.645-1.462zM57.022 13.819l-1.524 3.629h3.034l-1.51-3.629zM62.707 11.346h1.455v8.774h-1.455v-8.774zM70.203 20.121h-1.798l-4.201-4.667 3.803-4.108h1.785l-3.762 4.108 4.173 4.666zM71.65 11.346h5.958v1.263h-4.503v2.247h3.391v1.223h-3.391v2.779h4.668v1.263h-6.123v-8.774zM86.933 11.346v8.921h-0.494l-5.518-6.089v5.942h-1.455v-8.921h0.508l5.505 6.062v-5.916h1.455z"></path>
</symbol>
<symbol id="icon-logo" viewBox="0 0 131 32">
<path d="M24.52 17.772l-2.045 3.561c0.491 0.87 5.709 9.797 6.2 10.667 1.472 0 10.829 0 12.268 0-0.016-0.033-16.080-27.848-16.423-28.439-5.218 9.075-8.621 15.032-14.297 24.878h-4.089c0 0 15.605-27.175 16.341-28.439h-4.089c0 0-17.028 29.637-18.386 32 1.472 0 10.829 0 12.268 0 0 0 1.407-2.445 3.86-6.728 1.505 2.576 3.599 6.154 3.926 6.745 0.54 0 2.176 0 4.089 0-1.636-2.823-4.302-7.401-5.987-10.289 1.783-3.118 3.926-6.843 6.347-11.044 0.851 1.477 9.422 16.279 10.289 17.789h-4.089c-0.474-0.886-5.676-9.83-6.183-10.7z"></path>
<path d="M65.61 20.015h-6.038l-0.955 2.168h-2.297l5.916-13.223h0.732l5.916 13.223h-2.317l-0.956-2.168zM62.602 12.842l-2.257 5.38h4.493l-2.236-5.38z"></path>
<path d="M80.716 9.177l-5.916 13.223h-0.732l-5.916-13.223h2.419l3.862 9.045 3.862-9.045h2.419z"></path>
<path d="M89.275 20.015h-6.038l-0.956 2.168h-2.297l5.916-13.223h0.732l5.916 13.223h-2.317l-0.956-2.168zM86.266 12.842l-2.257 5.38h4.493l-2.236-5.38z"></path>
<path d="M94.685 9.177h2.155v13.006h-2.155v-13.006zM105.784 22.183h-2.663l-6.221-6.917 5.631-6.089h2.643l-5.571 6.089 6.18 6.917z"></path>
<path d="M107.926 9.177h8.823v1.872h-6.668v3.33h5.021v1.813h-5.021v4.119h6.912v1.872h-9.067v-13.006z"></path>
<path d="M130.56 9.177v13.223h-0.732l-8.172-9.026v8.809h-2.155v-13.223h0.752l8.152 8.986v-8.77h2.155z"></path>
</symbol>
<symbol id="icon-header-close" viewBox="0 0 32 32">
<path d="M0.669 0.669c0.893-0.893 2.34-0.893 3.232 0l12.098 12.098 12.098-12.098c0.893-0.893 2.34-0.893 3.233 0s0.893 2.34 0 3.232l-12.098 12.098 12.098 12.098c0.893 0.893 0.893 2.34 0 3.233s-2.34 0.893-3.233 0l-12.098-12.098-12.098 12.098c-0.893 0.893-2.34 0.893-3.232 0s-0.893-2.34 0-3.233l12.098-12.098-12.098-12.098c-0.893-0.893-0.893-2.34 0-3.232z"></path>
</symbol>
<symbol id="icon-header-burger" viewBox="0 0 40 32">
<path  d="M0 0h40.421v5.053h-40.421v-5.053z"></path>
<path  d="M10.105 13.474h30.316v5.053h-30.316v-5.053z"></path>
<path  d="M0 26.947h40.421v5.053h-40.421v-5.053z"></path>
</symbol>
<symbol id="icon-arrow-left" viewBox="0 0 36 32">
<path d="M17.127 0.67c-0.397-0.413-0.954-0.669-1.572-0.669s-1.174 0.256-1.571 0.669l-0.001 0.001-13.333 13.712c-0.403 0.417-0.651 0.985-0.651 1.611 0 0.002 0 0.005 0 0.007v-0c0 0.606 0.235 1.188 0.651 1.618l13.333 13.712c0.868 0.892 2.276 0.892 3.143 0 0.403-0.419 0.651-0.988 0.651-1.616s-0.248-1.197-0.651-1.617l0.001 0.001-9.54-9.813h25.746c1.227 0.002 2.222-1.022 2.222-2.284s-0.996-2.286-2.222-2.286h-25.746l9.54-9.813c0.402-0.418 0.65-0.988 0.65-1.615s-0.248-1.197-0.65-1.616l0.001 0.001z"></path>
</symbol>
<symbol id="icon-arrow-right" viewBox="0 0 36 32">
<path d="M18.428 0.67c0.397-0.413 0.954-0.669 1.572-0.669s1.174 0.256 1.571 0.669l0.001 0.001 13.333 13.714c0.416 0.428 0.651 1.010 0.651 1.616s-0.235 1.188-0.651 1.618l-13.333 13.712c-0.397 0.413-0.954 0.669-1.572 0.669s-1.174-0.256-1.571-0.669l-0.001-0.001c-0.403-0.419-0.651-0.988-0.651-1.616s0.248-1.197 0.651-1.617l-0.001 0.001 9.54-9.813h-25.746c-1.227 0.002-2.222-1.022-2.222-2.284s0.996-2.286 2.222-2.286h25.746l-9.54-9.813c-0.402-0.418-0.65-0.988-0.65-1.615s0.248-1.197 0.65-1.616l-0.001 0.001z"></path>
</symbol>
</defs>
</svg>
