<svg aria-hidden="true" style="position: absolute; width: 0; height: 0; overflow: hidden;" version="1.1" xmlns="http://www.w3.org/2000/svg" xmlns:xlink="http://www.w3.org/1999/xlink">
<defs>
<symbol id="icon-Logo-2" viewBox="0 0 131 32">
<path d="M24.52 17.772l-2.045 3.561c0.491 0.87 5.709 9.797 6.2 10.667 1.472 0 10.829 0 12.268 0-0.016-0.033-16.080-27.848-16.423-28.439-5.218 9.075-8.621 15.032-14.297 24.878h-4.089c0 0 15.605-27.175 16.341-28.439h-4.089c0 0-17.028 29.637-18.386 32 1.472 0 10.829 0 12.268 0 0 0 1.407-2.445 3.86-6.728 1.505 2.576 3.599 6.154 3.926 6.745 0.54 0 2.176 0 4.089 0-1.636-2.823-4.302-7.401-5.987-10.289 1.783-3.118 3.926-6.843 6.347-11.044 0.851 1.477 9.422 16.279 10.289 17.789h-4.089c-0.474-0.886-5.676-9.83-6.183-10.7z"></path>
<path d="M65.61 20.015h-6.038l-0.955 2.168h-2.297l5.916-13.223h0.732l5.916 13.223h-2.317l-0.956-2.168zM62.602 12.842l-2.257 5.38h4.493l-2.236-5.38z"></path>
<path d="M80.716 9.177l-5.916 13.223h-0.732l-5.916-13.223h2.419l3.862 9.045 3.862-9.045h2.419z"></path>
<path d="M89.275 20.015h-6.038l-0.956 2.168h-2.297l5.916-13.223h0.732l5.916 13.223h-2.317l-0.956-2.168zM86.266 12.842l-2.257 5.38h4.493l-2.236-5.38z"></path>
<path d="M94.685 9.177h2.155v13.006h-2.155v-13.006zM105.784 22.183h-2.663l-6.221-6.917 5.631-6.089h2.643l-5.571 6.089 6.18 6.917z"></path>
<path d="M107.926 9.177h8.823v1.872h-6.668v3.33h5.021v1.813h-5.021v4.119h6.912v1.872h-9.067v-13.006z"></path>
<path d="M130.56 9.177v13.223h-0.732l-8.172-9.026v8.809h-2.155v-13.223h0.752l8.152 8.986v-8.77h2.155z"></path>
</symbol>
</defs>
</svg>
